<?xml version="1.0" encoding="UTF-8"?>
<!DOCTYPE svg PUBLIC "-//W3C//DTD SVG 1.1//EN" "http://www.w3.org/Graphics/SVG/1.1/DTD/svg11.dtd">
<svg version="1.1" xmlns="http://www.w3.org/2000/svg" xmlns:xlink="http://www.w3.org/1999/xlink" x="0" y="0" width="22.4" height="22.4" viewBox="0, 0, 140, 140">
  <g id="Page-1">
    <path d="M-59,-59 L81,-59 L81,81 L-59,81 z" fill="#8BE028" id="background" display="none"/>
    <path d="M70,140 C31.34,140 0,108.66 0,70 C0,31.34 31.34,0 70,0 C108.66,0 140,31.34 140,70 C140,108.66 108.66,140 70,140 z" fill="#45698B"/>
    <g id="elements">
      <path d="M46.9,102.661 L47.046,102.807 C52.881,96.972 57.101,97.421 64.147,104.468 L75.279,115.599 C86.859,127.18 97.676,126.596 110.603,113.669 L114.553,109.72 L106.16,101.326 L104.14,103.346 C96.823,110.662 91.707,110.752 84.705,103.75 L71.643,90.688 C64.91,83.956 58.223,83.282 51.804,88.624 L50.547,87.367 C56.023,80.724 55.485,74.53 48.976,68.022 L37.261,56.307 C30.125,49.17 30.17,44.188 37.576,36.782 L39.595,34.762 L31.247,26.413 L27.297,30.363 C14.325,43.335 13.607,53.928 24.918,65.239 L34.568,74.889 C41.615,81.936 42.064,86.245 36.274,92.035 L36.317,92.078 C33.735,95.024 33.849,99.509 36.659,102.319 C39.469,105.129 43.954,105.243 46.9,102.661 z" fill="#90B0CC" id="transmitter"/>
      <g id="dots-@-15pt">
        <path d="M76.964,62.014 C79.893,64.943 79.893,69.692 76.964,72.621 C74.035,75.55 69.286,75.55 66.357,72.621 C63.428,69.692 63.428,64.943 66.357,62.014 C69.286,59.085 74.035,59.085 76.964,62.014 z" fill="#90B0CC" id="Oval-1"/>
        <path d="M94.641,44.336 C97.57,47.265 97.57,52.014 94.641,54.943 C91.712,57.872 86.964,57.872 84.035,54.943 C81.106,52.014 81.106,47.265 84.035,44.336 C86.964,41.407 91.712,41.407 94.641,44.336 z" fill="#90B0CC" id="Oval-2"/>
        <path d="M112.319,26.659 C115.248,29.588 115.248,34.336 112.319,37.265 C109.39,40.194 104.641,40.194 101.712,37.265 C98.784,34.336 98.784,29.588 101.712,26.659 C104.641,23.73 109.39,23.73 112.319,26.659 z" fill="#90B0CC" id="Oval-3"/>
      </g>
    </g>
  </g>
</svg>
