<?xml version="1.0" encoding="UTF-8"?>
<!DOCTYPE svg PUBLIC "-//W3C//DTD SVG 1.1//EN" "http://www.w3.org/Graphics/SVG/1.1/DTD/svg11.dtd">
<svg version="1.1" xmlns="http://www.w3.org/2000/svg" xmlns:xlink="http://www.w3.org/1999/xlink" x="0" y="0" viewBox="0, 0, 140, 140">
  <g id="Page-1">
    <g id="elements">
      <path d="M70,0 C108.66,0 140,31.34 140,70 C140,108.66 108.66,140 70,140 C31.34,140 0,108.66 0,70 C0,31.34 31.34,0 70,0 z M31.247,26.413 L27.297,30.363 C14.325,43.335 13.607,53.928 24.918,65.239 L34.568,74.889 C41.615,81.936 42.064,86.245 36.274,92.035 L36.317,92.078 C33.735,95.024 33.849,99.509 36.659,102.319 C39.469,105.129 43.954,105.243 46.9,102.661 L47.046,102.807 C52.881,96.972 57.101,97.421 64.147,104.468 L75.279,115.599 C86.859,127.18 97.676,126.596 110.603,113.669 L114.553,109.72 L106.16,101.326 L104.14,103.346 C96.823,110.662 91.707,110.752 84.705,103.75 L71.643,90.688 C64.91,83.956 58.223,83.282 51.804,88.624 L50.547,87.367 C56.023,80.724 55.485,74.53 48.976,68.022 L37.261,56.307 C30.125,49.17 30.17,44.188 37.576,36.782 L39.595,34.762 L31.247,26.413 z M71.2,59.88 C69.33,59.958 67.825,60.973 66.357,62.014 C63.428,64.943 63.428,69.692 66.357,72.621 C69.286,75.55 74.035,75.55 76.964,72.621 C79.893,69.692 79.893,64.943 76.964,62.014 C75.036,60.439 76.256,61.244 73.093,59.954 L72.02,59.887 L71.2,59.88 z M89.697,42.209 C87.444,42.057 85.748,43.007 84.035,44.336 C81.106,47.265 81.106,52.014 84.035,54.943 C86.964,57.872 91.712,57.872 94.641,54.943 C97.57,52.014 97.57,47.265 94.641,44.336 C92.713,42.761 93.933,43.566 90.77,42.277 L89.697,42.209 z M108.448,24.6 C105.387,24.327 104.036,24.76 101.712,26.659 C98.784,29.588 98.784,34.336 101.712,37.265 C104.641,40.194 109.39,40.194 112.319,37.265 C115.248,34.336 115.248,29.588 112.319,26.659 C110.391,25.084 111.611,25.889 108.448,24.6 z" fill="#45698B"/>
    </g>
  </g>
</svg>
